<mxfile host="app.diagrams.net" modified="2023-11-29T05:39:37.607Z" agent="Mozilla/5.0 (Windows NT 10.0; Win64; x64) AppleWebKit/537.36 (KHTML, like Gecko) Chrome/118.0.0.0 Safari/537.36 OPR/104.0.0.0 (Edition Yx GX)" etag="4Ks7sX5-24lPQebBERfk" version="22.1.4" type="device">
  <diagram name="Страница — 1" id="wArJzbK3f3nCfbkooaxg">
    <mxGraphModel dx="1685" dy="985" grid="1" gridSize="10" guides="1" tooltips="1" connect="1" arrows="1" fold="1" page="1" pageScale="1" pageWidth="850" pageHeight="1100" math="0" shadow="0">
      <root>
        <mxCell id="0" />
        <mxCell id="1" parent="0" />
        <mxCell id="FHGzEcDPNAjk184NqO0d-5" style="edgeStyle=orthogonalEdgeStyle;rounded=0;orthogonalLoop=1;jettySize=auto;html=1;entryX=0.5;entryY=0;entryDx=0;entryDy=0;" edge="1" parent="1" source="FHGzEcDPNAjk184NqO0d-1" target="FHGzEcDPNAjk184NqO0d-3">
          <mxGeometry relative="1" as="geometry" />
        </mxCell>
        <mxCell id="FHGzEcDPNAjk184NqO0d-1" value="Начало&lt;br&gt;" style="rounded=1;whiteSpace=wrap;html=1;" vertex="1" parent="1">
          <mxGeometry x="365" y="60" width="120" height="40" as="geometry" />
        </mxCell>
        <mxCell id="FHGzEcDPNAjk184NqO0d-2" value="Конец" style="rounded=1;whiteSpace=wrap;html=1;" vertex="1" parent="1">
          <mxGeometry x="365" y="620" width="120" height="40" as="geometry" />
        </mxCell>
        <mxCell id="FHGzEcDPNAjk184NqO0d-6" style="edgeStyle=orthogonalEdgeStyle;rounded=0;orthogonalLoop=1;jettySize=auto;html=1;" edge="1" parent="1" source="FHGzEcDPNAjk184NqO0d-3" target="FHGzEcDPNAjk184NqO0d-4">
          <mxGeometry relative="1" as="geometry" />
        </mxCell>
        <mxCell id="FHGzEcDPNAjk184NqO0d-3" value="Поступили задачи со стороны клиента" style="rounded=0;whiteSpace=wrap;html=1;" vertex="1" parent="1">
          <mxGeometry x="365" y="130" width="120" height="60" as="geometry" />
        </mxCell>
        <mxCell id="FHGzEcDPNAjk184NqO0d-8" style="edgeStyle=orthogonalEdgeStyle;rounded=0;orthogonalLoop=1;jettySize=auto;html=1;entryX=0.5;entryY=0;entryDx=0;entryDy=0;" edge="1" parent="1" source="FHGzEcDPNAjk184NqO0d-4" target="FHGzEcDPNAjk184NqO0d-7">
          <mxGeometry relative="1" as="geometry" />
        </mxCell>
        <mxCell id="FHGzEcDPNAjk184NqO0d-4" value="Выявление требований" style="rounded=0;whiteSpace=wrap;html=1;" vertex="1" parent="1">
          <mxGeometry x="365" y="240" width="120" height="60" as="geometry" />
        </mxCell>
        <mxCell id="FHGzEcDPNAjk184NqO0d-9" style="edgeStyle=orthogonalEdgeStyle;rounded=0;orthogonalLoop=1;jettySize=auto;html=1;exitX=1;exitY=0.5;exitDx=0;exitDy=0;entryX=0.5;entryY=0;entryDx=0;entryDy=0;" edge="1" parent="1" source="FHGzEcDPNAjk184NqO0d-7" target="FHGzEcDPNAjk184NqO0d-4">
          <mxGeometry relative="1" as="geometry">
            <Array as="points">
              <mxPoint x="560" y="370" />
              <mxPoint x="560" y="220" />
              <mxPoint x="425" y="220" />
            </Array>
          </mxGeometry>
        </mxCell>
        <mxCell id="FHGzEcDPNAjk184NqO0d-10" value="Нет" style="edgeLabel;html=1;align=center;verticalAlign=middle;resizable=0;points=[];" vertex="1" connectable="0" parent="FHGzEcDPNAjk184NqO0d-9">
          <mxGeometry x="-0.9183" y="2" relative="1" as="geometry">
            <mxPoint as="offset" />
          </mxGeometry>
        </mxCell>
        <mxCell id="FHGzEcDPNAjk184NqO0d-12" style="edgeStyle=orthogonalEdgeStyle;rounded=0;orthogonalLoop=1;jettySize=auto;html=1;entryX=0.5;entryY=0;entryDx=0;entryDy=0;" edge="1" parent="1" source="FHGzEcDPNAjk184NqO0d-7" target="FHGzEcDPNAjk184NqO0d-11">
          <mxGeometry relative="1" as="geometry" />
        </mxCell>
        <mxCell id="FHGzEcDPNAjk184NqO0d-7" value="Требования соответсвуют желаниям клиента&lt;br&gt;" style="rhombus;whiteSpace=wrap;html=1;" vertex="1" parent="1">
          <mxGeometry x="353" y="330" width="145" height="80" as="geometry" />
        </mxCell>
        <mxCell id="FHGzEcDPNAjk184NqO0d-15" value="" style="edgeStyle=orthogonalEdgeStyle;rounded=0;orthogonalLoop=1;jettySize=auto;html=1;" edge="1" parent="1" source="FHGzEcDPNAjk184NqO0d-11" target="FHGzEcDPNAjk184NqO0d-14">
          <mxGeometry relative="1" as="geometry" />
        </mxCell>
        <mxCell id="FHGzEcDPNAjk184NqO0d-11" value="Составление проекта договора" style="rounded=0;whiteSpace=wrap;html=1;" vertex="1" parent="1">
          <mxGeometry x="365" y="450" width="120" height="60" as="geometry" />
        </mxCell>
        <mxCell id="FHGzEcDPNAjk184NqO0d-16" value="" style="edgeStyle=orthogonalEdgeStyle;rounded=0;orthogonalLoop=1;jettySize=auto;html=1;" edge="1" parent="1" source="FHGzEcDPNAjk184NqO0d-14" target="FHGzEcDPNAjk184NqO0d-2">
          <mxGeometry relative="1" as="geometry" />
        </mxCell>
        <mxCell id="FHGzEcDPNAjk184NqO0d-14" value="Передача проекта на согласование" style="rounded=0;whiteSpace=wrap;html=1;" vertex="1" parent="1">
          <mxGeometry x="365" y="530" width="120" height="60" as="geometry" />
        </mxCell>
        <mxCell id="FHGzEcDPNAjk184NqO0d-19" value="" style="edgeStyle=orthogonalEdgeStyle;rounded=0;orthogonalLoop=1;jettySize=auto;html=1;" edge="1" parent="1" source="FHGzEcDPNAjk184NqO0d-17" target="FHGzEcDPNAjk184NqO0d-18">
          <mxGeometry relative="1" as="geometry" />
        </mxCell>
        <mxCell id="FHGzEcDPNAjk184NqO0d-17" value="Начало&lt;br&gt;" style="rounded=1;whiteSpace=wrap;html=1;" vertex="1" parent="1">
          <mxGeometry x="365.5" y="1140" width="120" height="40" as="geometry" />
        </mxCell>
        <mxCell id="FHGzEcDPNAjk184NqO0d-24" style="edgeStyle=orthogonalEdgeStyle;rounded=0;orthogonalLoop=1;jettySize=auto;html=1;entryX=0.5;entryY=0;entryDx=0;entryDy=0;" edge="1" parent="1" source="FHGzEcDPNAjk184NqO0d-18" target="FHGzEcDPNAjk184NqO0d-20">
          <mxGeometry relative="1" as="geometry" />
        </mxCell>
        <mxCell id="FHGzEcDPNAjk184NqO0d-18" value="Проект договора поступил в правовой отдел на расммортение" style="rounded=0;whiteSpace=wrap;html=1;" vertex="1" parent="1">
          <mxGeometry x="366" y="1220" width="120" height="60" as="geometry" />
        </mxCell>
        <mxCell id="FHGzEcDPNAjk184NqO0d-48" value="" style="edgeStyle=orthogonalEdgeStyle;rounded=0;orthogonalLoop=1;jettySize=auto;html=1;" edge="1" parent="1" source="FHGzEcDPNAjk184NqO0d-20" target="FHGzEcDPNAjk184NqO0d-47">
          <mxGeometry relative="1" as="geometry" />
        </mxCell>
        <mxCell id="FHGzEcDPNAjk184NqO0d-20" value="Рассмотрение договора правовым отделом" style="rounded=0;whiteSpace=wrap;html=1;" vertex="1" parent="1">
          <mxGeometry x="366" y="1320" width="120" height="60" as="geometry" />
        </mxCell>
        <mxCell id="FHGzEcDPNAjk184NqO0d-27" style="edgeStyle=orthogonalEdgeStyle;rounded=0;orthogonalLoop=1;jettySize=auto;html=1;exitX=1;exitY=0.5;exitDx=0;exitDy=0;entryX=0.5;entryY=0;entryDx=0;entryDy=0;" edge="1" parent="1" source="FHGzEcDPNAjk184NqO0d-21" target="FHGzEcDPNAjk184NqO0d-22">
          <mxGeometry relative="1" as="geometry" />
        </mxCell>
        <mxCell id="FHGzEcDPNAjk184NqO0d-28" value="Да" style="edgeLabel;html=1;align=center;verticalAlign=middle;resizable=0;points=[];" vertex="1" connectable="0" parent="FHGzEcDPNAjk184NqO0d-27">
          <mxGeometry x="-0.3972" y="-1" relative="1" as="geometry">
            <mxPoint as="offset" />
          </mxGeometry>
        </mxCell>
        <mxCell id="FHGzEcDPNAjk184NqO0d-30" style="edgeStyle=orthogonalEdgeStyle;rounded=0;orthogonalLoop=1;jettySize=auto;html=1;exitX=0;exitY=0.5;exitDx=0;exitDy=0;entryX=0.5;entryY=0;entryDx=0;entryDy=0;" edge="1" parent="1" source="FHGzEcDPNAjk184NqO0d-21" target="FHGzEcDPNAjk184NqO0d-29">
          <mxGeometry relative="1" as="geometry" />
        </mxCell>
        <mxCell id="FHGzEcDPNAjk184NqO0d-31" value="Нет" style="edgeLabel;html=1;align=center;verticalAlign=middle;resizable=0;points=[];" vertex="1" connectable="0" parent="FHGzEcDPNAjk184NqO0d-30">
          <mxGeometry x="-0.5205" y="-1" relative="1" as="geometry">
            <mxPoint as="offset" />
          </mxGeometry>
        </mxCell>
        <mxCell id="FHGzEcDPNAjk184NqO0d-21" value="В договоре выявлены правовые проблемы" style="rhombus;whiteSpace=wrap;html=1;" vertex="1" parent="1">
          <mxGeometry x="353.75" y="1450" width="145" height="80" as="geometry" />
        </mxCell>
        <mxCell id="FHGzEcDPNAjk184NqO0d-45" style="edgeStyle=orthogonalEdgeStyle;rounded=0;orthogonalLoop=1;jettySize=auto;html=1;exitX=1;exitY=0.5;exitDx=0;exitDy=0;" edge="1" parent="1" source="FHGzEcDPNAjk184NqO0d-22" target="FHGzEcDPNAjk184NqO0d-44">
          <mxGeometry relative="1" as="geometry" />
        </mxCell>
        <mxCell id="FHGzEcDPNAjk184NqO0d-22" value="Внесение правок в проект договора" style="rounded=0;whiteSpace=wrap;html=1;" vertex="1" parent="1">
          <mxGeometry x="498.25" y="1590" width="120" height="60" as="geometry" />
        </mxCell>
        <mxCell id="FHGzEcDPNAjk184NqO0d-33" style="edgeStyle=orthogonalEdgeStyle;rounded=0;orthogonalLoop=1;jettySize=auto;html=1;entryX=0.5;entryY=0;entryDx=0;entryDy=0;" edge="1" parent="1" source="FHGzEcDPNAjk184NqO0d-29" target="FHGzEcDPNAjk184NqO0d-32">
          <mxGeometry relative="1" as="geometry" />
        </mxCell>
        <mxCell id="FHGzEcDPNAjk184NqO0d-29" value="Передача договора соглсующим должностным лицам" style="rounded=0;whiteSpace=wrap;html=1;" vertex="1" parent="1">
          <mxGeometry x="233.75" y="1590" width="120" height="60" as="geometry" />
        </mxCell>
        <mxCell id="FHGzEcDPNAjk184NqO0d-51" value="" style="edgeStyle=orthogonalEdgeStyle;rounded=0;orthogonalLoop=1;jettySize=auto;html=1;" edge="1" parent="1" source="FHGzEcDPNAjk184NqO0d-32" target="FHGzEcDPNAjk184NqO0d-50">
          <mxGeometry relative="1" as="geometry" />
        </mxCell>
        <mxCell id="FHGzEcDPNAjk184NqO0d-32" value="Согласование договора должностными лицами" style="rounded=0;whiteSpace=wrap;html=1;" vertex="1" parent="1">
          <mxGeometry x="365" y="1660" width="120" height="60" as="geometry" />
        </mxCell>
        <mxCell id="FHGzEcDPNAjk184NqO0d-41" style="edgeStyle=orthogonalEdgeStyle;rounded=0;orthogonalLoop=1;jettySize=auto;html=1;exitX=1;exitY=0.5;exitDx=0;exitDy=0;entryX=0;entryY=0.5;entryDx=0;entryDy=0;" edge="1" parent="1" source="FHGzEcDPNAjk184NqO0d-34" target="FHGzEcDPNAjk184NqO0d-37">
          <mxGeometry relative="1" as="geometry" />
        </mxCell>
        <mxCell id="FHGzEcDPNAjk184NqO0d-42" value="Да" style="edgeLabel;html=1;align=center;verticalAlign=middle;resizable=0;points=[];" vertex="1" connectable="0" parent="FHGzEcDPNAjk184NqO0d-41">
          <mxGeometry x="-0.4533" relative="1" as="geometry">
            <mxPoint y="-10" as="offset" />
          </mxGeometry>
        </mxCell>
        <mxCell id="FHGzEcDPNAjk184NqO0d-53" style="edgeStyle=orthogonalEdgeStyle;rounded=0;orthogonalLoop=1;jettySize=auto;html=1;exitX=0;exitY=0.5;exitDx=0;exitDy=0;entryX=0;entryY=0.5;entryDx=0;entryDy=0;" edge="1" parent="1" source="FHGzEcDPNAjk184NqO0d-34" target="FHGzEcDPNAjk184NqO0d-43">
          <mxGeometry relative="1" as="geometry">
            <Array as="points">
              <mxPoint x="290" y="1840" />
              <mxPoint x="290" y="2090" />
            </Array>
          </mxGeometry>
        </mxCell>
        <mxCell id="FHGzEcDPNAjk184NqO0d-55" value="Нет" style="edgeLabel;html=1;align=center;verticalAlign=middle;resizable=0;points=[];" vertex="1" connectable="0" parent="FHGzEcDPNAjk184NqO0d-53">
          <mxGeometry x="-0.7281" y="2" relative="1" as="geometry">
            <mxPoint x="20" y="-12" as="offset" />
          </mxGeometry>
        </mxCell>
        <mxCell id="FHGzEcDPNAjk184NqO0d-34" value="Выявлены замчания необходимые к исправлению" style="rhombus;whiteSpace=wrap;html=1;" vertex="1" parent="1">
          <mxGeometry x="352.5" y="1800" width="145" height="80" as="geometry" />
        </mxCell>
        <mxCell id="FHGzEcDPNAjk184NqO0d-54" style="edgeStyle=orthogonalEdgeStyle;rounded=0;orthogonalLoop=1;jettySize=auto;html=1;entryX=1;entryY=0.5;entryDx=0;entryDy=0;" edge="1" parent="1" source="FHGzEcDPNAjk184NqO0d-36" target="FHGzEcDPNAjk184NqO0d-43">
          <mxGeometry relative="1" as="geometry" />
        </mxCell>
        <mxCell id="FHGzEcDPNAjk184NqO0d-36" value="Постановка отметки &quot;С замечаниями&quot; на проект договора" style="rounded=0;whiteSpace=wrap;html=1;" vertex="1" parent="1">
          <mxGeometry x="540" y="1970" width="120" height="60" as="geometry" />
        </mxCell>
        <mxCell id="FHGzEcDPNAjk184NqO0d-39" style="edgeStyle=orthogonalEdgeStyle;rounded=0;orthogonalLoop=1;jettySize=auto;html=1;entryX=0.5;entryY=0;entryDx=0;entryDy=0;" edge="1" parent="1" source="FHGzEcDPNAjk184NqO0d-37" target="FHGzEcDPNAjk184NqO0d-38">
          <mxGeometry relative="1" as="geometry" />
        </mxCell>
        <mxCell id="FHGzEcDPNAjk184NqO0d-37" value="Формирования листа замечаний" style="rounded=0;whiteSpace=wrap;html=1;" vertex="1" parent="1">
          <mxGeometry x="540" y="1810" width="120" height="60" as="geometry" />
        </mxCell>
        <mxCell id="FHGzEcDPNAjk184NqO0d-40" style="edgeStyle=orthogonalEdgeStyle;rounded=0;orthogonalLoop=1;jettySize=auto;html=1;entryX=0.5;entryY=0;entryDx=0;entryDy=0;" edge="1" parent="1" source="FHGzEcDPNAjk184NqO0d-38" target="FHGzEcDPNAjk184NqO0d-36">
          <mxGeometry relative="1" as="geometry" />
        </mxCell>
        <mxCell id="FHGzEcDPNAjk184NqO0d-38" value="Прикрепление листа замечаний к договору" style="rounded=0;whiteSpace=wrap;html=1;" vertex="1" parent="1">
          <mxGeometry x="540" y="1890" width="120" height="60" as="geometry" />
        </mxCell>
        <mxCell id="FHGzEcDPNAjk184NqO0d-57" value="" style="edgeStyle=orthogonalEdgeStyle;rounded=0;orthogonalLoop=1;jettySize=auto;html=1;" edge="1" parent="1" source="FHGzEcDPNAjk184NqO0d-43" target="FHGzEcDPNAjk184NqO0d-56">
          <mxGeometry relative="1" as="geometry" />
        </mxCell>
        <mxCell id="FHGzEcDPNAjk184NqO0d-43" value="Передача проекта на согласование к контрагенту" style="rounded=0;whiteSpace=wrap;html=1;" vertex="1" parent="1">
          <mxGeometry x="366" y="2060" width="120" height="60" as="geometry" />
        </mxCell>
        <mxCell id="FHGzEcDPNAjk184NqO0d-46" style="edgeStyle=orthogonalEdgeStyle;rounded=0;orthogonalLoop=1;jettySize=auto;html=1;entryX=0.5;entryY=0;entryDx=0;entryDy=0;" edge="1" parent="1" source="FHGzEcDPNAjk184NqO0d-44" target="FHGzEcDPNAjk184NqO0d-20">
          <mxGeometry relative="1" as="geometry">
            <Array as="points">
              <mxPoint x="705" y="1300" />
              <mxPoint x="426" y="1300" />
            </Array>
          </mxGeometry>
        </mxCell>
        <mxCell id="FHGzEcDPNAjk184NqO0d-44" value="2 Дня" style="rounded=0;whiteSpace=wrap;html=1;" vertex="1" parent="1">
          <mxGeometry x="660" y="1530" width="90" height="30" as="geometry" />
        </mxCell>
        <mxCell id="FHGzEcDPNAjk184NqO0d-49" style="edgeStyle=orthogonalEdgeStyle;rounded=0;orthogonalLoop=1;jettySize=auto;html=1;entryX=0.5;entryY=0;entryDx=0;entryDy=0;" edge="1" parent="1" source="FHGzEcDPNAjk184NqO0d-47" target="FHGzEcDPNAjk184NqO0d-21">
          <mxGeometry relative="1" as="geometry" />
        </mxCell>
        <mxCell id="FHGzEcDPNAjk184NqO0d-47" value="5 Дней" style="rounded=0;whiteSpace=wrap;html=1;" vertex="1" parent="1">
          <mxGeometry x="381.25" y="1400" width="90" height="30" as="geometry" />
        </mxCell>
        <mxCell id="FHGzEcDPNAjk184NqO0d-52" style="edgeStyle=orthogonalEdgeStyle;rounded=0;orthogonalLoop=1;jettySize=auto;html=1;entryX=0.5;entryY=0;entryDx=0;entryDy=0;" edge="1" parent="1" source="FHGzEcDPNAjk184NqO0d-50" target="FHGzEcDPNAjk184NqO0d-34">
          <mxGeometry relative="1" as="geometry" />
        </mxCell>
        <mxCell id="FHGzEcDPNAjk184NqO0d-50" value="2 Дня" style="rounded=0;whiteSpace=wrap;html=1;" vertex="1" parent="1">
          <mxGeometry x="380" y="1750" width="90" height="30" as="geometry" />
        </mxCell>
        <mxCell id="FHGzEcDPNAjk184NqO0d-56" value="Конец" style="rounded=1;whiteSpace=wrap;html=1;" vertex="1" parent="1">
          <mxGeometry x="366" y="2150" width="120" height="40" as="geometry" />
        </mxCell>
        <mxCell id="FHGzEcDPNAjk184NqO0d-60" value="" style="edgeStyle=orthogonalEdgeStyle;rounded=0;orthogonalLoop=1;jettySize=auto;html=1;" edge="1" parent="1" source="FHGzEcDPNAjk184NqO0d-58" target="FHGzEcDPNAjk184NqO0d-59">
          <mxGeometry relative="1" as="geometry" />
        </mxCell>
        <mxCell id="FHGzEcDPNAjk184NqO0d-58" value="Начало" style="rounded=1;whiteSpace=wrap;html=1;" vertex="1" parent="1">
          <mxGeometry x="365" y="2240" width="120" height="40" as="geometry" />
        </mxCell>
        <mxCell id="FHGzEcDPNAjk184NqO0d-62" value="" style="edgeStyle=orthogonalEdgeStyle;rounded=0;orthogonalLoop=1;jettySize=auto;html=1;" edge="1" parent="1" source="FHGzEcDPNAjk184NqO0d-59" target="FHGzEcDPNAjk184NqO0d-61">
          <mxGeometry relative="1" as="geometry" />
        </mxCell>
        <mxCell id="FHGzEcDPNAjk184NqO0d-59" value="Договор передали на подписание" style="whiteSpace=wrap;html=1;rounded=0;" vertex="1" parent="1">
          <mxGeometry x="365" y="2310" width="120" height="60" as="geometry" />
        </mxCell>
        <mxCell id="FHGzEcDPNAjk184NqO0d-64" value="" style="edgeStyle=orthogonalEdgeStyle;rounded=0;orthogonalLoop=1;jettySize=auto;html=1;" edge="1" parent="1" source="FHGzEcDPNAjk184NqO0d-61" target="FHGzEcDPNAjk184NqO0d-63">
          <mxGeometry relative="1" as="geometry" />
        </mxCell>
        <mxCell id="FHGzEcDPNAjk184NqO0d-61" value="Подписание договора уполномоченными лицами" style="whiteSpace=wrap;html=1;rounded=0;" vertex="1" parent="1">
          <mxGeometry x="365.25" y="2400" width="120" height="60" as="geometry" />
        </mxCell>
        <mxCell id="FHGzEcDPNAjk184NqO0d-66" value="" style="edgeStyle=orthogonalEdgeStyle;rounded=0;orthogonalLoop=1;jettySize=auto;html=1;" edge="1" parent="1" source="FHGzEcDPNAjk184NqO0d-63" target="FHGzEcDPNAjk184NqO0d-65">
          <mxGeometry relative="1" as="geometry" />
        </mxCell>
        <mxCell id="FHGzEcDPNAjk184NqO0d-63" value="2 Дня" style="rounded=0;whiteSpace=wrap;html=1;" vertex="1" parent="1">
          <mxGeometry x="380" y="2480" width="90" height="30" as="geometry" />
        </mxCell>
        <mxCell id="FHGzEcDPNAjk184NqO0d-68" value="" style="edgeStyle=orthogonalEdgeStyle;rounded=0;orthogonalLoop=1;jettySize=auto;html=1;" edge="1" parent="1" source="FHGzEcDPNAjk184NqO0d-65" target="FHGzEcDPNAjk184NqO0d-67">
          <mxGeometry relative="1" as="geometry" />
        </mxCell>
        <mxCell id="FHGzEcDPNAjk184NqO0d-65" value="Передача договора в службу управления делами" style="whiteSpace=wrap;html=1;rounded=0;" vertex="1" parent="1">
          <mxGeometry x="365.25" y="2540" width="120" height="60" as="geometry" />
        </mxCell>
        <mxCell id="FHGzEcDPNAjk184NqO0d-70" value="" style="edgeStyle=orthogonalEdgeStyle;rounded=0;orthogonalLoop=1;jettySize=auto;html=1;" edge="1" parent="1" source="FHGzEcDPNAjk184NqO0d-67" target="FHGzEcDPNAjk184NqO0d-69">
          <mxGeometry relative="1" as="geometry" />
        </mxCell>
        <mxCell id="FHGzEcDPNAjk184NqO0d-67" value="Регистрация договора в журнале" style="whiteSpace=wrap;html=1;rounded=0;" vertex="1" parent="1">
          <mxGeometry x="365.25" y="2620" width="120" height="60" as="geometry" />
        </mxCell>
        <mxCell id="FHGzEcDPNAjk184NqO0d-72" value="" style="edgeStyle=orthogonalEdgeStyle;rounded=0;orthogonalLoop=1;jettySize=auto;html=1;" edge="1" parent="1" source="FHGzEcDPNAjk184NqO0d-69" target="FHGzEcDPNAjk184NqO0d-71">
          <mxGeometry relative="1" as="geometry" />
        </mxCell>
        <mxCell id="FHGzEcDPNAjk184NqO0d-69" value="Регистрация договора в системе эл. Документооборота" style="whiteSpace=wrap;html=1;rounded=0;" vertex="1" parent="1">
          <mxGeometry x="365.25" y="2700" width="120" height="60" as="geometry" />
        </mxCell>
        <mxCell id="FHGzEcDPNAjk184NqO0d-74" value="" style="edgeStyle=orthogonalEdgeStyle;rounded=0;orthogonalLoop=1;jettySize=auto;html=1;" edge="1" parent="1" source="FHGzEcDPNAjk184NqO0d-71" target="FHGzEcDPNAjk184NqO0d-73">
          <mxGeometry relative="1" as="geometry" />
        </mxCell>
        <mxCell id="FHGzEcDPNAjk184NqO0d-71" value="Передача договора контраагенту" style="whiteSpace=wrap;html=1;rounded=0;" vertex="1" parent="1">
          <mxGeometry x="365" y="2780" width="120" height="60" as="geometry" />
        </mxCell>
        <mxCell id="FHGzEcDPNAjk184NqO0d-76" value="" style="edgeStyle=orthogonalEdgeStyle;rounded=0;orthogonalLoop=1;jettySize=auto;html=1;" edge="1" parent="1" source="FHGzEcDPNAjk184NqO0d-73" target="FHGzEcDPNAjk184NqO0d-75">
          <mxGeometry relative="1" as="geometry" />
        </mxCell>
        <mxCell id="FHGzEcDPNAjk184NqO0d-73" value="Получение подписанного обеими сторонами договора&amp;nbsp;" style="whiteSpace=wrap;html=1;rounded=0;" vertex="1" parent="1">
          <mxGeometry x="365.25" y="2870" width="120" height="60" as="geometry" />
        </mxCell>
        <mxCell id="FHGzEcDPNAjk184NqO0d-78" value="" style="edgeStyle=orthogonalEdgeStyle;rounded=0;orthogonalLoop=1;jettySize=auto;html=1;" edge="1" parent="1" source="FHGzEcDPNAjk184NqO0d-75" target="FHGzEcDPNAjk184NqO0d-77">
          <mxGeometry relative="1" as="geometry" />
        </mxCell>
        <mxCell id="FHGzEcDPNAjk184NqO0d-75" value="1 День" style="rounded=0;whiteSpace=wrap;html=1;" vertex="1" parent="1">
          <mxGeometry x="381.25" y="2950" width="90" height="30" as="geometry" />
        </mxCell>
        <mxCell id="FHGzEcDPNAjk184NqO0d-80" value="" style="edgeStyle=orthogonalEdgeStyle;rounded=0;orthogonalLoop=1;jettySize=auto;html=1;" edge="1" parent="1" source="FHGzEcDPNAjk184NqO0d-77" target="FHGzEcDPNAjk184NqO0d-79">
          <mxGeometry relative="1" as="geometry" />
        </mxCell>
        <mxCell id="FHGzEcDPNAjk184NqO0d-77" value="Сохранение копии договора у менеджера отдела продаж" style="whiteSpace=wrap;html=1;rounded=0;" vertex="1" parent="1">
          <mxGeometry x="366.25" y="3000" width="120" height="60" as="geometry" />
        </mxCell>
        <mxCell id="FHGzEcDPNAjk184NqO0d-82" value="" style="edgeStyle=orthogonalEdgeStyle;rounded=0;orthogonalLoop=1;jettySize=auto;html=1;" edge="1" parent="1" source="FHGzEcDPNAjk184NqO0d-79" target="FHGzEcDPNAjk184NqO0d-81">
          <mxGeometry relative="1" as="geometry" />
        </mxCell>
        <mxCell id="FHGzEcDPNAjk184NqO0d-79" value="Отправка второй копии главному бухгалтеру" style="whiteSpace=wrap;html=1;rounded=0;" vertex="1" parent="1">
          <mxGeometry x="366.25" y="3080" width="120" height="60" as="geometry" />
        </mxCell>
        <mxCell id="FHGzEcDPNAjk184NqO0d-81" value="Конец" style="rounded=1;whiteSpace=wrap;html=1;" vertex="1" parent="1">
          <mxGeometry x="366" y="3190" width="120" height="40" as="geometry" />
        </mxCell>
      </root>
    </mxGraphModel>
  </diagram>
</mxfile>
